<svg width="140" height="140" viewBox="0 0 140 140" fill="none" xmlns="http://www.w3.org/2000/svg">
<path d="M116.727 114.628C89.2015 135.822 50.8081 135.653 23.4707 114.216L43.5072 104.824C44.4614 104.375 45.3772 103.849 46.2454 103.251C46.5089 103.07 46.7725 102.88 47.0236 102.683C49.2043 101.014 50.9993 98.8949 52.286 96.4692C53.2588 94.6055 53.905 92.5889 54.1966 90.5069C54.3977 89.156 54.4995 87.7921 54.5013 86.4263C54.5013 85.0016 54.4642 83.5769 54.4148 82.1522C54.386 81.2216 54.3613 80.2869 54.3489 79.3563C54.3325 78.0524 54.3187 76.7471 54.3078 75.4404L55.1313 75.8522L57.2725 76.9598L58.2648 77.1287L69.7448 79.0804L82.5589 81.2628L82.946 94.4392L83.0737 98.7463L83.1354 100.838V100.966L83.5472 101.139L88.1054 102.992L116.727 114.628Z" fill="#F2A196"/>
<path d="M83.1321 100.966C81.7169 101.209 80.2609 100.984 78.9856 100.324L54.4157 80.2418C54.3868 79.3112 54.3621 80.283 54.3498 79.3524C54.3333 78.0485 54.3196 76.7432 54.3086 75.4365L55.1321 75.8483L57.2733 76.9559L58.2657 77.1248L69.7457 79.0765L82.5598 81.2589L82.9468 94.4353L83.0745 98.7424L83.1362 100.834V100.966H83.1321Z" fill="#E88870"/>
<path d="M116.727 114.628C89.2015 135.822 50.8081 135.653 23.4707 114.217L43.5072 104.824C44.4614 104.376 45.3772 103.85 46.2454 103.251C46.5089 103.07 46.7725 102.881 47.0236 102.683C56.7207 109.584 69.9548 113.937 81.4019 108.785C84.1278 107.55 86.6313 105.557 88.1137 102.996L116.727 114.628Z" fill="url(#paint0_linear_51241_10121)"/>
<path d="M109.357 32.16C109.32 32.403 109.275 32.6418 109.221 32.8806C108.935 34.1048 108.477 35.282 107.858 36.3765L107.825 36.4341C107.591 36.8459 107.339 37.2577 107.068 37.6694C106.347 38.7265 105.56 39.7373 104.712 40.6959L104.206 41.26C103.864 41.643 103.518 42.0177 103.172 42.3883C105.005 41.9765 106.779 43.6853 107.105 45.53C107.43 47.3747 106.693 49.2359 105.783 50.883C104.189 53.7983 101.892 55.7377 99.8699 58.27C98.3546 60.1559 97.5146 62.3877 95.8635 64.1912L95.7399 64.3271C91.3793 68.9059 84.4946 69.9765 78.7629 71.9324C76.704 72.6406 54.3782 78.9818 54.3782 80.3653C54.3782 80.0647 52.1917 77.8947 49.437 75.2553C39.5546 65.8712 36.3058 51.373 42.1858 38.9377C48.5064 25.5553 62.8605 16.0065 76.5311 11.4194C80.8052 9.98649 85.6558 9.02296 89.7076 11.0077C93.7593 12.9924 95.777 19.1483 92.417 22.1541C94.5303 20.5552 97.1588 19.7914 99.7999 20.0088C102.239 20.1617 104.54 21.1964 106.273 22.92C107.646 24.2991 108.632 26.0142 109.135 27.8941C109.507 29.2848 109.583 30.7382 109.357 32.16Z" fill="#845161"/>
<path d="M109.356 32.1601C109.319 32.4031 109.274 32.6419 109.221 32.8807C109.184 32.9507 109.146 33.0248 109.109 33.1072C108.644 34.1695 108.43 35.3142 107.874 36.3766L107.841 36.4342C107.606 36.846 107.355 37.2578 107.084 37.6695C106.369 38.7317 105.582 39.743 104.728 40.696L104.205 41.2601C103.864 41.6431 103.518 42.0178 103.172 42.3884C105.004 41.9766 106.779 43.6854 107.104 45.5301C107.429 47.3748 106.692 49.236 105.782 50.8831C104.189 53.7984 101.891 55.7378 99.8694 58.2701C98.3541 60.156 97.5141 62.3878 95.8629 64.1913C93.9459 61.9116 92.7252 59.1286 92.3464 56.1742C91.6711 50.7142 92.0829 44.7642 91.8976 39.2384C91.7823 35.7631 90.6623 35.1207 92.7459 32.3084C94.4213 30.2413 96.3592 28.4017 98.5106 26.836C100.191 25.7284 102.352 25.5554 104.358 25.8395C106.105 26.0785 107.754 26.7904 109.126 27.8984C109.5 29.2871 109.579 30.7391 109.356 32.1601Z" fill="#69303A"/>
<ellipse cx="50.2559" cy="63.9072" rx="7" ry="6.99999" fill="#F2A196"/>
<ellipse cx="52.476" cy="63.9072" rx="6.26705" ry="6.26707" fill="#E88870"/>
<path d="M52.5703 57.319L54.3821 80.7895L81.7397 96.7742C85.6606 98.2367 90.0516 96.4881 91.8938 92.7307C95.8303 84.6684 102.147 71.9366 101.315 67.2013C100.08 60.2013 96.7856 57.7307 96.7856 57.7307C97.244 54.9856 97.6997 52.2488 98.1527 49.5201C98.6715 46.4278 99.3344 43.1995 98.5644 40.0907C97.6874 36.5248 94.9944 35.0054 92.7791 32.3413C86.9486 39.8519 77.3627 44.0972 68.9915 48.4001C64.6762 50.6401 52.5703 57.319 52.5703 57.319Z" fill="#F2A196"/>
<path d="M72.796 56.4131C75.3078 56.4131 75.3078 60.2754 72.796 60.296H72.6807C70.1689 60.296 70.1689 56.4337 72.6807 56.4131H72.796Z" fill="#00214E"/>
<path d="M93.4329 55.8408C95.7676 55.8614 95.7676 59.4232 93.4329 59.4438H93.33C90.9994 59.4438 90.9994 55.8614 93.33 55.8408H93.4329Z" fill="#00214E"/>
<path d="M83.2589 55.2969C83.226 55.441 88.7601 70.1739 88.7601 70.1739L81.373 70.5322" stroke="#00214E"/>
<path d="M65.7676 52.4476C69.5796 51.6605 73.5003 51.5504 77.3505 52.1223" stroke="#00214E"/>
<path d="M90.082 52.4932C92.4356 51.9473 94.8609 51.7791 97.2673 51.995" stroke="#00214E"/>
<path d="M73.8056 74.6543C73.9186 74.4733 74.1024 74.348 74.3122 74.3088C74.5219 74.2697 74.7385 74.3203 74.9092 74.4484C75.7656 75.0496 77.3303 76.3261 79.5539 76.7667C82.5845 77.372 85.2115 76.1573 85.8415 76.9396C86.1956 77.3802 85.7633 77.9155 84.9356 78.5867C83.1835 79.8957 80.9778 80.4435 78.8168 80.1061C75.9015 79.5584 73.7109 76.182 73.7109 74.9837C73.714 74.8677 73.7466 74.7543 73.8056 74.6543Z" fill="white"/>
<defs>
<linearGradient id="paint0_linear_51241_10121" x1="23.4707" y1="130.406" x2="116.727" y2="130.406" gradientUnits="userSpaceOnUse">
<stop stop-color="#16243F"/>
<stop offset="1" stop-color="#6878B1"/>
</linearGradient>
</defs>
</svg>
