<svg width="140" height="140" viewBox="0 0 140 140" fill="none" xmlns="http://www.w3.org/2000/svg">
<path d="M73.9739 28.1029C73.4098 30.5241 70.1857 31.7182 68.8227 33.6164C67.4104 35.5888 67.2827 39.0106 65.2568 40.2706C63.231 41.5306 60.1016 40.1306 57.7133 40.5258C55.4033 40.9088 52.9039 43.2764 50.4869 42.7123C48.0698 42.1482 46.8716 38.92 44.9733 37.557C43.001 36.1447 39.5792 36.017 38.3192 33.9911C37.0592 31.9653 38.4592 28.84 38.0639 26.4476C37.681 24.1376 35.3133 21.6423 35.8774 19.2211C36.4416 16.8 39.6698 15.6058 41.0327 13.7076C42.4451 11.7353 42.5727 8.31349 44.5986 7.05349C46.6245 5.79349 49.7498 7.19349 52.1421 6.7982C54.4521 6.41526 56.9474 4.05173 59.3686 4.61585C61.7898 5.17997 62.9839 8.40408 64.8821 9.76702C66.8545 11.1794 70.2763 11.307 71.5363 13.3329C72.7963 15.3588 71.3963 18.4882 71.7916 20.8806C72.1745 23.1864 74.5586 25.6858 73.9739 28.1029Z" fill="url(#paint0_linear_51241_10120)"/>
<path d="M81.3106 83.6128C80.273 84.848 79.3754 86.1986 78.3212 87.4133C72.713 93.8616 60.4918 89.6245 54.4142 85.7663C49.9548 82.9457 46.5906 78.6922 43.7083 74.2616C40.1671 68.7975 37.2065 62.8557 35.9259 56.4733C30.0583 27.2422 67.5577 14.5269 88.5865 28.8769C96.4101 34.2298 103.484 46.2369 101.763 55.8598C100.886 60.7433 97.4106 65.1369 97.7812 70.0822C98.193 75.4104 103.011 80.4875 100.993 85.4369C100.202 87.3722 98.5018 88.7557 97.1183 90.3245C95.253 92.4451 93.8942 95.0969 93.7295 97.9133C93.5648 100.73 94.7383 103.678 97.0648 105.292C91.3289 104.526 87.7918 97.658 89.2783 92.0663C89.7642 90.2298 90.6577 88.5169 91.0489 86.6557C91.4401 84.7945 91.2136 82.6328 89.793 81.3727C87.9689 79.7545 84.9959 80.368 83.0771 81.8751C82.4323 82.3945 81.8406 82.9766 81.3106 83.6128Z" fill="url(#paint1_linear_51241_10120)"/>
<path d="M116.727 119.881C89.2015 141.075 50.8081 140.906 23.4707 119.469L43.5072 110.077C44.1205 109.787 44.7183 109.465 45.2984 109.113L45.7595 108.825C45.9242 108.722 46.0848 108.615 46.2454 108.504C48.7723 106.762 50.8439 104.439 52.286 101.73C53.9331 98.6217 54.4766 95.1875 54.5013 91.6875C54.5013 89.3322 54.3736 86.977 54.3489 84.6175C54.3325 83.3136 54.3187 82.0083 54.3078 80.7017L54.3901 80.7428L55.1231 81.1217L57.2642 82.2293L69.7366 84.3499L82.5507 86.5322L82.8472 96.6081L82.9378 99.6964L83.1313 106.231L87.8542 108.154L91.5601 109.653L116.727 119.881Z" fill="#845161"/>
<path d="M82.847 96.5956C81.9694 97.1804 80.9276 97.469 79.8741 97.4192C73.7841 96.7644 61.9047 91.9921 54.427 83.1597C54.427 82.726 54.4188 82.2937 54.4023 81.8627V80.7139L55.1353 81.0927L57.2765 82.2003L69.7488 84.3209L82.5629 86.5033L82.847 96.5956Z" fill="#69303A"/>
<path d="M116.727 119.885C89.2015 141.079 50.8081 140.91 23.4707 119.474L43.5072 110.081C44.1214 109.79 44.7206 109.469 45.3025 109.118C55.0489 116.287 68.6207 120.956 80.3231 115.706C83.6419 114.215 86.6354 111.568 87.8542 108.167L91.5601 109.665L116.727 119.885Z" fill="url(#paint2_linear_51241_10120)"/>
<ellipse cx="44.0137" cy="67.5171" rx="7" ry="7" fill="#845161"/>
<circle cx="46.4844" cy="66.6934" r="7" fill="#69303A"/>
<path d="M91.5896 56.9143C96.4238 73.669 86.1543 93.9072 79.8379 93.9072C71.1908 93.9072 50.1908 87.0019 45.3608 70.2472C40.5308 53.4925 46.9708 36.9396 59.7355 33.2543C72.5002 29.569 86.7555 40.1637 91.5896 56.9143Z" fill="#845161"/>
<ellipse cx="64.8333" cy="62.3699" rx="7.82352" ry="4.8753" stroke="white"/>
<ellipse cx="87.3978" cy="61.3157" rx="7.82354" ry="4.87529" stroke="white"/>
<path d="M77.2507 36.3504C76.2624 38.3021 74.2036 39.9986 72.9807 41.9956C71.3789 44.6104 70.1683 47.4515 68.8095 50.198C67.8007 52.2568 66.6765 54.2909 64.9677 55.8021C63.2589 57.3133 60.8501 58.2068 58.6636 57.5768C57.1648 57.1445 55.9501 56.0739 54.6077 55.2792C53.2654 54.4845 51.5483 53.9533 50.173 54.6945C48.1471 55.7815 48.176 58.7339 46.7265 60.5168C43.4036 64.6057 37.3054 59.0962 36.5683 55.5262C35.4977 50.3092 39.776 45.9486 42.8889 42.3498C45.4871 39.3439 48.9954 34.7568 53.0718 33.7562C53.146 33.7562 76.9542 24.2856 76.9542 24.2856C77.1683 27.4686 78.453 32.1751 77.6871 35.2221C77.5847 35.6135 77.4383 35.992 77.2507 36.3504Z" fill="url(#paint3_linear_51241_10120)"/>
<path d="M76.3693 57.6963C76.3487 57.7951 78.6505 64.2351 80.0463 68.1222C80.278 68.7831 80.1758 69.5153 79.772 70.0875C79.3682 70.6597 78.7126 71.0013 78.0122 71.0045H76.5134" stroke="#00214E"/>
<path d="M81.0898 53.4922C83.999 52.0102 87.3634 51.6922 90.4987 52.6028" stroke="#00214E"/>
<path d="M58.3965 55.0159C62.4078 52.9708 67.1219 52.8198 71.2559 54.6041" stroke="#00214E"/>
<path d="M72.6562 62.3698L79.6316 61.8345" stroke="white"/>
<path d="M65.8789 59.5781C68.3907 59.5781 68.3907 63.4364 65.8789 63.457H65.7678C63.2519 63.4364 63.2519 59.5946 65.7678 59.5781H65.8789Z" fill="#00214E"/>
<path d="M86.5727 58.3057C88.9033 58.3263 88.9033 61.888 86.5727 61.9086H86.4698C84.1351 61.9086 84.1351 58.3263 86.4698 58.3057H86.5727Z" fill="#00214E"/>
<path d="M73.4462 68.645C72.774 68.7198 72.2528 69.267 72.2109 69.9421C72.2212 70.2681 72.3767 70.5725 72.635 70.7717C72.8932 70.971 73.2271 71.0443 73.545 70.9715" stroke="#00214E"/>
<path d="M66.1787 74.8712C66.2925 74.6912 66.4762 74.5667 66.6856 74.5276C66.8949 74.4886 67.1111 74.5385 67.2822 74.6653C68.1387 75.2665 69.7034 76.543 71.9269 76.9836C74.9575 77.5889 77.5887 76.3742 78.2146 77.1565C78.5687 77.5971 78.1363 78.1324 77.3087 78.8242C75.5566 80.1332 73.3508 80.681 71.1899 80.3436C68.2746 79.7959 66.084 76.4195 66.084 75.2212C66.0839 75.0982 66.1166 74.9774 66.1787 74.8712Z" fill="white"/>
<defs>
<linearGradient id="paint0_linear_51241_10120" x1="31.4338" y1="38.3001" x2="69.5298" y2="47.1818" gradientUnits="userSpaceOnUse">
<stop stop-color="#16243F"/>
<stop offset="1" stop-color="#6878B1"/>
</linearGradient>
<linearGradient id="paint1_linear_51241_10120" x1="35.3206" y1="105.282" x2="102.018" y2="105.282" gradientUnits="userSpaceOnUse">
<stop stop-color="#16243F"/>
<stop offset="1" stop-color="#6878B1"/>
</linearGradient>
<linearGradient id="paint2_linear_51241_10120" x1="58.9097" y1="147.265" x2="73.3262" y2="101.3" gradientUnits="userSpaceOnUse">
<stop stop-color="#315676"/>
<stop offset="1" stop-color="#E1B9E0"/>
</linearGradient>
<linearGradient id="paint3_linear_51241_10120" x1="31.4012" y1="53.6245" x2="70.6944" y2="73.5274" gradientUnits="userSpaceOnUse">
<stop stop-color="#16243F"/>
<stop offset="1" stop-color="#6878B1"/>
</linearGradient>
</defs>
</svg>
